<svg width="1440" height="450" viewBox="0 0 1440 450" fill="none" xmlns="http://www.w3.org/2000/svg">
<g opacity="0.1">
<path d="M-761.821 565.535C-761.821 565.535 -507.102 894.454 256.87 394.516C1020.84 -105.421 1573.84 312.879 1724.91 569.503" stroke="#FFC453" stroke-width="1.32107" stroke-miterlimit="10"/>
<path d="M-760.399 555.445C-760.399 555.445 -577.457 794.491 -41.3538 586.832C51.4646 551.171 153.815 498.063 266.247 425.657C721.844 131.962 1103 109.02 1358.95 229.334C1535.29 311.003 1667.28 453.06 1724.19 549.688" stroke="#FCE821" stroke-width="1.32107" stroke-miterlimit="10"/>
<path d="M-759.061 545.253C-759.061 545.253 -578.463 784.144 -34.7893 608.508C59.7039 578.536 163.066 527.91 275.568 456.591C729.83 168.162 1110.78 94.5394 1357.45 206.564C1532.06 285.866 1670.36 439.552 1723.47 529.723" stroke="#FBE321" stroke-width="1.32107" stroke-miterlimit="10"/>
<path d="M-757.727 535.058C-757.727 535.058 -579.479 773.767 -28.2127 630.189C67.9552 605.903 172.33 557.759 284.895 487.554C737.817 204.364 1118.51 79.088 1355.97 183.872C1528.84 260.159 1673.47 426.143 1722.78 509.86" stroke="#FBDD20" stroke-width="1.32107" stroke-miterlimit="10"/>
<path d="M-756.39 524.866C-756.39 524.866 -580.491 763.392 -21.645 651.861C76.2085 633.255 181.573 587.596 294.207 518.478C745.795 240.551 1126.23 63.5132 1354.46 161.146C1525.57 234.366 1676.54 412.667 1722.06 489.932" stroke="#FBD720" stroke-width="1.32107" stroke-miterlimit="10"/>
<path d="M-755.057 514.64C-755.057 514.64 -582.039 750.123 -15.0709 673.481C84.3593 660.036 190.833 617.376 303.537 549.344C753.79 276.679 1133.95 47.7711 1352.98 138.412C1522.33 208.485 1679.63 399.179 1721.36 469.995" stroke="#FAD220" stroke-width="1.32107" stroke-miterlimit="10"/>
<path d="M-753.722 504.439C-753.722 504.439 -583.063 739.523 -8.50609 695.112C92.5985 687.292 200.089 647.189 312.852 580.246C761.77 312.841 1141.66 31.9818 1351.48 115.718C1519.06 182.593 1682.7 385.753 1720.64 450.095" stroke="#FAC120" stroke-width="1.32107" stroke-miterlimit="10"/>
<path d="M-752.394 494.24C-752.394 494.24 -584.077 729.002 -1.93722 716.726C100.847 714.553 209.343 676.955 322.175 611.098C769.754 348.926 1149.37 16.0585 1349.98 93.0012C1515.82 156.622 1685.79 372.271 1719.93 430.169" stroke="#FAC120" stroke-width="1.32107" stroke-miterlimit="10"/>
<path d="M-751.067 484.01C-751.067 484.01 -585.054 718.576 4.61823 738.296C109.076 741.795 218.573 706.676 331.48 641.93C777.724 385.015 1157.05 0.00897819 1348.49 70.3164C1512.55 130.582 1688.87 358.815 1719.22 410.273" stroke="#FAC120" stroke-width="1.32107" stroke-miterlimit="10"/>
<path d="M-749.726 473.796C-749.726 473.796 -586.018 708.273 11.1931 759.835C117.336 769.001 227.833 736.36 340.809 672.699C785.719 421.041 1164.75 -16.2104 1347 47.5761C1509.29 104.404 1691.97 345.323 1718.52 390.318" stroke="#F9BB1F" stroke-width="1.32107" stroke-miterlimit="10"/>
<path d="M-748.394 463.902C-748.394 463.902 -586.959 698.49 17.8203 781.869C125.663 796.733 237.164 766.526 350.209 703.92C793.822 457.386 1172.57 -32.471 1345.67 24.985C1506.2 78.2727 1695.25 332.109 1718 370.692" stroke="#F9B51F" stroke-width="1.32107" stroke-miterlimit="10"/>
<path d="M-747.054 454.422C-747.054 454.422 -587.861 689.39 24.564 804.574C134.114 825.181 246.639 797.361 359.782 735.79C802.147 494.185 1180.65 -48.8194 1344.64 2.47005C1503.4 52.1179 1698.87 319.196 1717.83 351.385" stroke="#F9AF1F" stroke-width="1.32107" stroke-miterlimit="10"/>
<path d="M-745.735 444.889C-745.735 444.889 -588.511 682.69 31.2774 827.271C142.59 854.054 256.085 828.205 369.31 767.65C810.433 531.023 1188.67 -65.3596 1343.56 -20.0901C1500.54 25.7737 1702.44 306.239 1717.61 332.019" stroke="#FFB321" stroke-width="1.32107" stroke-miterlimit="10"/>
<path d="M-744.398 435.35C-744.398 435.35 -589.483 673.253 38.0223 849.995C151.033 882.487 265.552 859.091 378.882 799.553C818.762 567.927 1196.72 -82.0276 1342.52 -42.6876C1497.71 -0.801145 1706.07 293.27 1717.44 312.603" stroke="#FFB321" stroke-width="1.32107" stroke-miterlimit="10"/>
<path d="M-743.062 425.777C-743.062 425.777 -590.462 663.745 44.7567 872.721C159.466 910.932 275.021 889.991 388.438 831.505C827.075 604.899 1204.74 -98.8417 1341.46 -65.2559C1494.81 -27.5915 1709.66 280.305 1717.25 293.202" stroke="#FFB321" stroke-width="1.32107" stroke-miterlimit="10"/>
<path d="M-741.731 416.16C-741.731 416.16 -591.448 654.181 51.4924 895.403C167.911 939.336 284.492 920.858 398.002 863.401C835.389 641.808 1212.72 -115.927 1340.4 -87.95C1491.88 -54.7809 1713.25 267.212 1717.05 273.692" stroke="#FFB321" stroke-width="1.32107" stroke-miterlimit="10"/>
<path d="M-740.42 406.505C-740.42 406.505 -592.448 644.606 58.212 918.127C629.798 1158.41 1189.76 -139.02 1339.32 -110.642C1488.89 -82.2656 1716.85 254.161 1716.85 254.161" stroke="#FFB321" stroke-width="1.32107" stroke-miterlimit="10"/>
<path d="M-733.219 400.161C-730.595 402.348 -573.038 618.441 53.6057 877.569C115.331 902.653 176.937 911.523 237.523 906.394C721.786 865.468 1188.23 -95.3167 1335.89 -68.6154C1487.17 -40.5746 1708.6 275.504 1708.6 275.504" stroke="#00F55E" stroke-width="1.32107" stroke-miterlimit="10"/>
<path d="M-726.045 393.788C-720.809 398.162 -553.332 596.531 48.9925 837.024C110.234 861.478 171.271 870.809 230.998 867.205C696.573 839.064 1170.41 -54.7516 1332.45 -26.6755C1485.43 1.03389 1700.36 296.814 1700.36 296.814" stroke="#00F55E" stroke-width="1.32107" stroke-miterlimit="10"/>
<path d="M-718.868 387.392C-711.009 393.949 -533.806 572.09 44.3733 796.483C105.115 820.064 165.593 830.074 224.463 827.992C671.272 812.236 1152.47 -15.1951 1329.01 15.2034C1483.6 41.8127 1692.12 318.047 1692.12 318.047" stroke="#00F55E" stroke-width="1.32107" stroke-miterlimit="10"/>
<path d="M-711.694 380.997C-701.214 389.734 -514.314 547.371 39.7529 755.969C99.9888 778.653 159.903 789.313 217.926 788.804C645.87 785.036 1134.62 25.0345 1325.57 57.0389C1481.86 83.2075 1683.88 339.281 1683.88 339.281" stroke="#80E3F1" stroke-width="1.32107" stroke-miterlimit="10"/>
<path d="M-704.519 374.591C-691.417 385.505 -494.827 522.36 35.1478 715.472C94.8731 737.232 154.223 748.542 211.394 749.632C620.389 757.425 1116.79 65.2607 1322.12 98.7936C1480.11 124.602 1675.62 360.45 1675.62 360.45" stroke="#80E3F1" stroke-width="1.32107" stroke-miterlimit="10"/>
<path d="M-697.345 368.39C-681.633 381.486 -475.356 497.328 30.585 675.328C89.8151 696.17 148.578 708.113 204.934 710.848C594.899 729.704 1099.1 105.619 1318.83 140.662C1478.52 166.122 1667.55 381.816 1667.55 381.816" stroke="#80E3F1" stroke-width="1.32107" stroke-miterlimit="10"/>
<path d="M-690.169 362.686C-671.831 377.973 -455.858 472.6 26.1514 635.932C84.8857 655.822 143.072 668.408 198.628 672.817C569.542 702.287 1081.72 146.285 1315.89 182.814C1477.33 207.995 1659.9 403.69 1659.9 403.69" stroke="#80E3F1" stroke-width="1.32107" stroke-miterlimit="10"/>
<path d="M-682.996 356.967C-662.033 374.448 -436.387 447.539 21.7115 596.474C79.9498 615.41 137.543 628.563 192.316 634.725C544.065 674.303 1064.33 187.029 1312.93 224.992C1476.12 249.923 1652.22 425.534 1652.22 425.534" stroke="#80E3F1" stroke-width="1.32107" stroke-miterlimit="10"/>
<path d="M-675.821 351.23C-652.232 370.907 -416.937 422.085 17.2832 556.949C75.0257 574.876 132.025 588.595 186.02 596.593C518.519 645.738 1046.97 227.86 1310 267.26C1474.95 291.966 1644.58 447.466 1644.58 447.466" stroke="#26C485" stroke-width="1.32107" stroke-miterlimit="10"/>
<path d="M-668.646 345.472C-642.441 367.35 -397.515 396.266 12.8367 517.335C70.0779 534.225 126.462 548.461 179.689 558.35C492.837 616.496 1029.58 268.763 1307.04 309.519C1473.74 333.998 1636.91 469.362 1636.91 469.362" stroke="#26C485" stroke-width="1.32107" stroke-miterlimit="10"/>
<path d="M-661.465 339.731C-632.632 363.81 -378.116 370.12 8.39874 477.723C65.1278 493.523 120.897 508.223 173.378 520.107C467.088 586.656 1012.37 310.923 1304.09 351.852C1472.64 376.79 1629.23 491.281 1629.23 491.281" stroke="#26C485" stroke-width="1.32107" stroke-miterlimit="10"/>
<path d="M-654.289 333.941C-622.827 360.223 -358.762 343.53 3.96487 438.02C60.1818 452.673 115.33 467.755 167.07 481.773C441.269 556.067 994.998 351.844 1301.16 394.21C1471.47 418.867 1621.58 513.225 1621.58 513.225" stroke="#26C485" stroke-width="1.32107" stroke-miterlimit="10"/>
<path d="M-647.116 328.147C-613.037 356.636 -339.456 316.57 -0.485627 398.276C55.2028 411.703 109.731 427.114 160.751 443.425C415.369 524.777 977.594 392.816 1298.22 436.618C1470.27 460.97 1613.91 535.169 1613.91 535.169" stroke="#008332" stroke-width="1.32107" stroke-miterlimit="10"/>
<path d="M-639.938 322.334C-603.228 353.03 -320.178 289.222 -4.93285 358.477C50.2218 370.595 104.118 386.228 154.419 405.001C389.447 492.734 960.192 433.819 1295.27 479.061C1469.08 503.129 1606.26 557.148 1606.26 557.148" stroke="#008332" stroke-width="1.32107" stroke-miterlimit="10"/>
<path d="M-632.762 316.514C-593.422 349.418 -300.97 261.453 -9.37337 318.633C45.2366 329.334 98.5078 345.05 148.104 366.528C363.529 459.883 942.801 474.829 1292.33 521.54C1467.89 545.302 1598.6 579.145 1598.6 579.145" stroke="#DDF8ED" stroke-width="1.32107" stroke-miterlimit="10"/>
<path d="M-625.589 310.674C-575.156 352.882 -149.561 181.895 141.779 328.031C433.119 474.166 1590.94 601.146 1590.94 601.146" stroke="#DDF8ED" stroke-width="1.32107" stroke-miterlimit="10"/>
</g>
</svg>
